<svg fill="currentColor" id="Layer_2" data-name="Layer 2" xmlns="http://www.w3.org/2000/svg" viewBox="0 0 265.03 241.29"><defs><style>.cls-1{fill:#74a822;}.cls-2{fill:#8bbf41;stroke:#fff;stroke-miterlimit:10;}</style></defs><title>1</title><path class="cls-1" d="M489.89-19.68" transform="translate(-235.17 -34.48)"/><path class="cls-2" d="M278.7,275.24C298.79,272.5,310,261.08,310,261.08c45-15.06,54.06-30.59,54.06-30.59,10.05-29.22,28.31-26,28.31-26-32,45.66,53.88,16.44,53.88,16.44,23.28-5,18.72-23.29,18.72-23.29,16.43,13.24,30.13,6.85,30.13,6.85l4.11-6.85-12,1.83s-42.83-19.64-43.74-36.53l-13.7-27.39L418,128.68a195.9,195.9,0,0,1-29-54.34V110l-9.36-22.83L359.06,59.28s-26.48-44.75-27.85-12.79L312,83.48s-19.63,4.11-16.89-1.37S297,69.32,305.18,62l-3.19-11-14.61-.46s-8.22-15.52-16.44-2.28,4.11,11,4.11,11l8.22,1.82s-.95,13.72,6.39,14.61l3.65,21.92-7.3,3.2s-7.48-9.59-17.89-1.83l-8.59-.91L255.87,94s5.48-16.9-10.5-14.61c0,0-15.06,11.87,0,18.72,0,0,6.24,6.85-6.69,25.11l3.95,8.22-1.82,7.3-5-.45,6.4,34.69L249,182.1l-1.6,20.35,1.82,13.2,7.31,7.54.23,19.63Z" transform="translate(-235.17 -34.48)"/></svg>