<svg id="Layer_2" data-name="Layer 2" xmlns="http://www.w3.org/2000/svg" viewBox="0 0 291.21 254.38"><defs><style>.cls-1{fill:#74a822;}.cls-2{fill:#8bbf41;stroke:#fff;stroke-miterlimit:10;}</style></defs><title>2</title><path class="cls-1" d="M489.89-19.68" transform="translate(-19.75 -201.81)"/><path class="cls-2" d="M247.43,202.45l-197.6,59H20.32l6.26,45.6-1.79,15.2s53.65,14.31,59.91,8.95,46.49,13.41,44.7,18.77S231.33,455.49,231.33,455.49s13.42-13.41,8.94-27.72c-2.65-8.5-4.76-23.83-6-34.88a50.7,50.7,0,0,1,3.33-24.7l9.86-24.47L260.84,341,275.15,329H310s-25.84-38.67-29.19-37.75l-2.13-16-21.91-32.42-.23-19.63-7.31-7.54Z" transform="translate(-19.75 -201.81)"/></svg>