<svg id="Layer_2" data-name="Layer 2" xmlns="http://www.w3.org/2000/svg" viewBox="0 0 418.2 218.39"><defs><style>.cls-1{fill:#74a822;}.cls-2{fill:#8bbf41;stroke:#fff;stroke-miterlimit:10;}</style></defs><title>3</title><path class="cls-1" d="M489.89-19.68" transform="translate(-278.14 -196.3)"/><path class="cls-2" d="M310,329l64.56,33V342.81s18.27,12.78,20.55,12.33,5.93,6.85,5.93,6.85l20.55,9.13,26,27.85s11.87,2.28,11.87-28.31,5.93-30.59,5.93-30.59,5.84,6.9,0,15.52c0,0,8.68,22.83,13.7,22.38,0,0,0,31,22.37,29.22,0,0,58,32.87,47.49-43.83,0,0-5-16.9-1.37-16,0,0,3.19-8.22,15.52,36.07l7.3,5.47s9.14-8.67,11.42-7.76,10.5,15.07,13.7,13.24,35.15,11.87,39.26-20.54l5.94-2.28s-9.59,26,10,20.08c0,0,6.39,23.75,36.07,14.16,0,0,6.85.45,8.68-7.31S691,336.88,665,344.18c0,0-41.54,4.11-32-1.37s28.31.63,28.77-13.84c0,0-16.44-19.11-9.59-21.58,0,0,26.94,38.16,27.4-3.84l-.92-16.44s-12.54-32.74-59.35-11.87c-42,18.72-53.43,18.41-80.82,10l-3.19-9.13s-20.09,4.57-24.2-17.81l-14.61-8.21-1.37-45.66s-13.7,6.39-30.13-6.85c0,0,4.56,18.26-18.72,23.29,0,0-85.84,29.22-53.88-16.44,0,0-18.26-3.2-28.31,26,0,0-9.05,15.53-54.06,30.59,0,0-11.23,11.42-31.32,14.16l2.13,16Z" transform="translate(-278.14 -196.3)"/></svg>