<svg id="Layer_2" data-name="Layer 2" xmlns="http://www.w3.org/2000/svg" viewBox="0 0 327.14 213.4"><defs><style>.cls-1{fill:#74a822;}.cls-2{fill:#8bbf41;stroke:#fff;stroke-miterlimit:10;}</style></defs><title>5</title><path class="cls-1" d="M489.89-19.68" transform="translate(-495.07 -197.12)"/><path class="cls-2" d="M680,303.32l-.91-16.44S666.58,254.15,619.76,275c-42,18.72-53.42,18.41-80.81,10l-3.2-9.13s-20.08,4.57-24.19-17.8L497,249.9l-1.37-45.66,3.65-6.62h9.59L532.56,236l58,.92,31.51-9.59,20.54,3.19-.91,20,49.77,13.81,44.74,46.11,6.85,13.7,26.48,10.05,28.31,33.33h6.39l-5,14.61,3.19,7.3h16.9l2.28,8.22-18.26,1.83-11.46-5-10.92,1.37-30.59-51.13-2.74,2.74s35.16,44.28,1.83,62.55l-12.78-9.59A13.29,13.29,0,0,1,722,404.9c-9.59-2.73-13.7-26.93-11-32.87S723,359.25,723,359.25l-2.28-2.74s-12.21,20.54-24.82-16.44c0,0-6.51-25.29,23-19.63l-2.74-3.65s-12.78-.92-11.41-13C704.69,303.77,688.25,335.51,680,303.32Z" transform="translate(-495.07 -197.12)"/></svg>