<svg id="Layer_2" data-name="Layer 2" xmlns="http://www.w3.org/2000/svg" viewBox="0 0 264.67 128.37"><defs><style>.cls-1{fill:#74a822;}.cls-2{fill:#8bbf41;stroke:#fff;stroke-miterlimit:10;}</style></defs><title>6</title><path class="cls-1" d="M489.89-19.68" transform="translate(-430.17 -424.38)"/><path class="cls-2" d="M430.74,479.33l5.18-3.35v-9.44l28.91-26.48s55.1-7,41.09,29.22l-10.34,19.18v9.13L474.88,528l-10.35-7.92-2.13-10.95-9.13-10.66-11,1.22-9.74-13.39Z" transform="translate(-430.17 -424.38)"/><path class="cls-2" d="M477,529.85s25,24.66,28,22.22c0,0,8.83-46.87,52.66-59.05s39.57-25.5,136.67-9.25V470.5s-21-29.83-42.31-25.26c0,0-41.09-44.14-62.4-2.44,0,0,2.44,26.79-4,.91s-52-1.52-52-1.52-12.17,6.7-1.52,20.09-5.48,4.57-5.48,4.57-8.52,1.52-2.13,9.13-6.39,6.09-6.39,6.09-18-2.74-22.52,26.78C495.58,508.85,479.44,518.9,477,529.85Z" transform="translate(-430.17 -424.38)"/></svg>