<svg id="Layer_2" data-name="Layer 2" xmlns="http://www.w3.org/2000/svg" viewBox="0 0 801.25 517.26"><defs><style>.cls-1{fill:#74a822;}.cls-2{fill:#8bbf41;}.cls-3{fill:#627742;}.cls-4{fill:#9cbc5e;}.cls-5{fill:#cae588;}</style></defs><title>macritchie map</title><path class="cls-1" d="M489.89-19.68" transform="translate(-20.32 -34.98)"/><path class="cls-2" d="M247.43,202.45l-197.6,59H20.32l6.26,45.6-1.79,15.2s53.65,14.31,59.91,8.95,46.49,13.41,44.7,18.77S231.33,455.49,231.33,455.49s13.42-13.41,8.94-27.72c-2.65-8.5-4.76-23.83-6-34.88a50.7,50.7,0,0,1,3.33-24.7l9.86-24.47L260.84,341,275.15,329H310s-25.84-38.67-29.19-37.75l-2.13-16-21.91-32.42-.23-19.63-7.31-7.54Z" transform="translate(-20.32 -34.98)"/><path class="cls-1" d="M310,329l64.56,33V342.81s18.27,12.78,20.55,12.33,5.93,6.85,5.93,6.85l20.55,9.13,26,27.85s11.87,2.28,11.87-28.31,5.93-30.59,5.93-30.59,5.84,6.9,0,15.52c0,0,8.68,22.83,13.7,22.38,0,0,0,31,22.37,29.22,0,0,58,32.87,47.49-43.83,0,0-5-16.9-1.37-16,0,0,3.19-8.22,15.52,36.07l7.3,5.47s9.14-8.67,11.42-7.76,10.5,15.07,13.7,13.24,35.15,11.87,39.26-20.54l5.94-2.28s-9.59,26,10,20.08c0,0,6.39,23.75,36.07,14.16,0,0,6.85.45,8.68-7.31S691,336.88,665,344.18c0,0-41.54,4.11-32-1.37s28.31.63,28.77-13.84c0,0-16.44-19.11-9.59-21.58,0,0,26.94,38.16,27.4-3.84l-.92-16.44s-12.54-32.74-59.35-11.87c-42,18.72-53.43,18.41-80.82,10l-3.19-9.13s-20.09,4.57-24.2-17.81l-14.61-8.21-1.37-45.66s-13.7,6.39-30.13-6.85c0,0,4.56,18.26-18.72,23.29,0,0-85.84,29.22-53.88-16.44,0,0-18.26-3.2-28.31,26,0,0-9.05,15.53-54.06,30.59,0,0-11.23,11.42-31.32,14.16l2.13,16Z" transform="translate(-20.32 -34.98)"/><path class="cls-3" d="M278.7,275.24C298.79,272.5,310,261.08,310,261.08c45-15.06,54.06-30.59,54.06-30.59,10.05-29.22,28.31-26,28.31-26-32,45.66,53.88,16.44,53.88,16.44,23.28-5,18.72-23.29,18.72-23.29,16.43,13.24,30.13,6.85,30.13,6.85l4.11-6.85-12,1.83s-42.83-19.64-43.74-36.53l-13.7-27.39L418,128.68a195.9,195.9,0,0,1-29-54.34V110l-9.36-22.83L359.06,59.28s-26.48-44.75-27.85-12.79L312,83.48s-19.63,4.11-16.89-1.37S297,69.32,305.18,62l-3.19-11-14.61-.46s-8.22-15.52-16.44-2.28,4.11,11,4.11,11l8.22,1.82s-.95,13.72,6.39,14.61l3.65,21.92-7.3,3.2s-7.48-9.59-17.89-1.83l-8.59-.91L255.87,94s5.48-16.9-10.5-14.61c0,0-15.06,11.87,0,18.72,0,0,6.24,6.85-6.69,25.11l3.95,8.22-1.82,7.3-5-.45,6.4,34.69L249,182.1l-1.6,20.35,1.82,13.2,7.31,7.54.23,19.63Z" transform="translate(-20.32 -34.98)"/><path class="cls-4" d="M680,303.32l-.91-16.44S666.58,254.15,619.76,275c-42,18.72-53.42,18.41-80.81,10l-3.2-9.13s-20.08,4.57-24.19-17.8L497,249.9l-1.37-45.66,3.65-6.62h9.59L532.56,236l58,.92,31.51-9.59,20.54,3.19-.91,20,49.77,13.81,44.74,46.11,6.85,13.7,26.48,10.05,28.31,33.33h6.39l-5,14.61,3.19,7.3h16.9l2.28,8.22-18.26,1.83-11.46-5-10.92,1.37-30.59-51.13-2.74,2.74s35.16,44.28,1.83,62.55l-12.78-9.59A13.29,13.29,0,0,1,722,404.9c-9.59-2.73-13.7-26.93-11-32.87S723,359.25,723,359.25l-2.28-2.74s-12.21,20.54-24.82-16.44c0,0-6.51-25.29,23-19.63l-2.74-3.65s-12.78-.92-11.41-13C704.69,303.77,688.25,335.51,680,303.32Z" transform="translate(-20.32 -34.98)"/><polygon class="cls-5" points="488.5 162.63 512.24 200.99 570.22 201.9 601.73 192.31 600.05 186.53 578.44 191.09 558.35 180.75 578.44 136.61 599.44 129.61 642.67 129.61 656.67 120.13 645.41 120.13 632.93 102.52 630.8 89.43 595.79 89.43 576.92 99.78 548 94.61 538.26 100.08 526.09 94.91 514.83 124.13 499.61 140.87 488.5 162.63"/><path class="cls-5" d="M430.74,479.33l5.18-3.35v-9.44l28.91-26.48s55.1-7,41.09,29.22l-10.34,19.18v9.13L474.88,528l-10.35-7.92-2.13-10.95-9.13-10.66-11,1.22-9.74-13.39Z" transform="translate(-20.32 -34.98)"/><path class="cls-5" d="M477,529.85s25,24.66,28,22.22c0,0,8.83-46.87,52.66-59.05s39.57-25.5,136.67-9.25V470.5s-21-29.83-42.31-25.26c0,0-41.09-44.14-62.4-2.44,0,0,2.44,26.79-4,.91s-52-1.52-52-1.52-12.17,6.7-1.52,20.09-5.48,4.57-5.48,4.57-8.52,1.52-2.13,9.13-6.39,6.09-6.39,6.09-18-2.74-22.52,26.78C495.58,508.85,479.44,518.9,477,529.85Z" transform="translate(-20.32 -34.98)"/></svg>